<svg id="logo" xmlns="http://www.w3.org/2000/svg" viewBox="0 0 581.32 582.96"><defs><style>.cls-1{fill:#e9e5e3;stroke:#e9e5e3;stroke-miterlimit:10;}</style></defs><title>logo-kalm-light</title><path class="cls-1" d="M707.05,623.05V686.6c0,.35,0,.71,0,1.06-2.08,26.06-52.64,22.48-70.13,18.46-.8-.19-1.6-.31-2.39-.55-38.91-11.65-124.72-166.76-124.72-166.76-72-133.2-221-64.08-221-64.08C215.06,513.66,180,544.64,162.32,569.4c-16,22.38-20.06,51.42-9.77,77,16.27,40.33,54.82,40.78,54.82,40.78,60.12,0,77-64.44,77-64.44,4.32-10.08,4.67-42.12,4.67-42.12V313.09c0-183.6-63-186.12-63-186.12h149s-63.72.35-63.72,184V609s-1.8,98.77-105,98.77c0,0-79.68,2-79.68-98.77,0,0,8.64-145.43,162-213.83,0,0,161.53-69.38,231.12,58.51a97.84,97.84,0,0,1,6.6,15.19c9.5,27.76,47.08,133.62,82,177.22,0,0,24.47,30.72,50.41,35.07.75.12,1.5.24,2.24.39C667.28,682.76,707.05,687.66,707.05,623.05Z" transform="translate(-126.23 -126.47)"/><circle class="cls-1" cx="438.26" cy="320.18" r="23.04"/><circle class="cls-1" cx="474.26" cy="392.18" r="23.04"/><path class="cls-1" d="M356.91,329.48l57.83-114.64s28.44-50.22,36.14-58c0,0,36.1-45.79,92.08-23.87,0,0,48.23,19.54,33.32,81.4-3.47,14.4-16.48,34.59-28,43.86-21.89,17.57-93.33,39.29-191,71.27Z" transform="translate(-126.23 -126.47)"/></svg>